<?xml version="1.0" encoding="utf-8"?>
<!-- Generator: Adobe Illustrator 25.0.0, SVG Export Plug-In . SVG Version: 6.00 Build 0)  -->
<svg version="1.1" id="Layer_1" xmlns="http://www.w3.org/2000/svg" xmlns:xlink="http://www.w3.org/1999/xlink" x="0px" y="0px"
	 viewBox="0 0 147.8 65.7" style="enable-background:new 0 0 147.8 65.7;" xml:space="preserve">
<style type="text/css">
	.st0{fill:#FFFFFF;}
	.st1{fill:#E20613;}
</style>
<g>
	<path class="st0" d="M38.4,39.4l-0.3-30l12.6-0.1c4.8,0,7.9,0.1,9.3,0.4c2.2,0.4,4.1,1.4,5.6,2.9c1.5,1.5,2.3,3.4,2.3,5.8
		c0,1.8-0.4,3.4-1.3,4.6c-0.9,1.3-1.9,2.3-3.3,3c-1.3,0.7-2.7,1.2-4,1.5c-1.9,0.3-4.6,0.5-8.1,0.5l-5.1,0l0.1,11.3L38.4,39.4z
		 M46,14.4l0.1,8.5l4.3,0c3.1,0,5.1-0.2,6.2-0.5c1-0.3,1.8-0.8,2.4-1.5c0.6-0.7,0.9-1.4,0.9-2.3c0-1.1-0.4-2-1.3-2.7
		c-0.8-0.7-1.9-1.1-3.2-1.3c-0.9-0.1-2.8-0.2-5.6-0.2L46,14.4z"/>
	<path class="st0" d="M72.1,9.1L86.3,9c3.2,0,5.7,0.2,7.4,0.5c2.3,0.5,4.2,1.4,5.9,2.7c1.6,1.3,2.9,2.9,3.7,4.8
		c0.9,1.9,1.3,4.3,1.3,7.1c0,2.5-0.4,4.6-1.1,6.4c-0.9,2.2-2.3,4-4.1,5.3c-1.4,1-3.2,1.8-5.5,2.4c-1.7,0.4-4,0.7-6.9,0.7l-14.7,0.1
		L72.1,9.1z M79.9,14.1L80.1,34l5.8-0.1c2.2,0,3.8-0.1,4.7-0.3c1.3-0.3,2.3-0.7,3.2-1.3c0.8-0.6,1.5-1.6,2-2.9
		c0.5-1.3,0.8-3.2,0.7-5.5s-0.3-4.1-0.8-5.3c-0.5-1.2-1.3-2.2-2.2-2.9c-1-0.7-2.2-1.1-3.6-1.4c-1.1-0.2-3.2-0.3-6.4-0.2L79.9,14.1z"
		/>
	<path class="st0" d="M133.9,27.5l7.6,1.8c-1.1,3.3-3,5.7-5.7,7.3c-2.7,1.6-6.1,2.4-10.3,2.5c-5.1,0-9.4-1.3-12.7-4s-5-6.4-5.1-11.1
		c0-5,1.6-8.9,4.9-11.7c3.3-2.8,7.7-4.2,13.1-4.2c4.7,0,8.6,1,11.6,3.2c1.8,1.3,3.1,3.1,4,5.5l-7.7,1.5c-0.5-1.6-1.4-2.8-2.9-3.7
		s-3.2-1.3-5.3-1.3c-2.9,0-5.2,0.8-7,2.5c-1.8,1.6-2.6,4.2-2.6,7.8c0,3.8,0.9,6.5,2.7,8.1c1.8,1.6,4.1,2.4,6.9,2.4
		c2.1,0,3.9-0.5,5.3-1.6C132.2,31.4,133.3,29.8,133.9,27.5"/>
	<path class="st0" d="M44.4,54l2.5,0.9c-0.2,0.9-0.4,1.7-0.8,2.3c-0.4,0.6-0.8,1.1-1.3,1.4c-0.5,0.3-1.2,0.5-2,0.5
		c-1,0-1.8-0.2-2.4-0.5c-0.6-0.4-1.2-1-1.6-2c-0.5-0.9-0.7-2.2-0.7-3.6c0-2,0.4-3.5,1.2-4.6c0.8-1.1,1.9-1.6,3.4-1.6
		c1.1,0,2,0.3,2.7,0.9c0.7,0.6,1.1,1.5,1.5,2.8l-2.5,0.7c-0.1-0.4-0.2-0.6-0.3-0.8c-0.2-0.3-0.3-0.5-0.6-0.6
		c-0.2-0.2-0.5-0.2-0.8-0.2c-0.6,0-1.1,0.3-1.4,1c-0.3,0.5-0.4,1.3-0.4,2.4c0,1.3,0.2,2.2,0.5,2.7c0.3,0.5,0.7,0.7,1.3,0.7
		c0.5,0,0.9-0.2,1.2-0.6C44.1,55.3,44.3,54.7,44.4,54"/>
	<path class="st0" d="M53.6,52.8c0-1.9,0.4-3.5,1.2-4.5c0.8-1.1,2-1.6,3.4-1.7c1.5,0,2.7,0.5,3.5,1.6c0.8,1.1,1.2,2.5,1.3,4.5
		c0,1.4-0.2,2.5-0.5,3.4c-0.3,0.9-0.9,1.6-1.5,2.1c-0.7,0.5-1.5,0.8-2.5,0.8c-1,0-1.9-0.2-2.5-0.6c-0.7-0.4-1.2-1.1-1.6-2
		C53.9,55.4,53.6,54.2,53.6,52.8 M56.4,52.8c0,1.2,0.2,2.1,0.5,2.6c0.3,0.5,0.8,0.8,1.4,0.8c0.6,0,1.1-0.3,1.4-0.8s0.5-1.4,0.5-2.8
		c0-1.1-0.2-1.9-0.5-2.4c-0.3-0.5-0.8-0.8-1.4-0.8c-0.6,0-1,0.3-1.4,0.8C56.6,50.7,56.4,51.6,56.4,52.8"/>
	<polygon class="st0" points="70.3,46.7 72.9,46.7 76.3,53.3 76.3,46.7 78.9,46.7 79,58.6 76.4,58.6 72.9,52.1 73,58.6 70.4,58.6 	
		"/>
	<path class="st0" d="M86.1,54.6l2.7-0.2c0.1,0.6,0.2,1,0.4,1.3c0.3,0.5,0.7,0.7,1.2,0.7c0.4,0,0.7-0.1,0.9-0.4
		c0.2-0.2,0.3-0.5,0.3-0.9c0-0.3-0.1-0.6-0.3-0.8c-0.2-0.2-0.7-0.5-1.4-0.7c-1.2-0.4-2.1-0.8-2.6-1.4c-0.5-0.6-0.8-1.4-0.8-2.3
		c0-0.6,0.1-1.2,0.4-1.7c0.3-0.5,0.7-1,1.2-1.3c0.5-0.3,1.3-0.5,2.2-0.5c1.1,0,2,0.3,2.7,0.8c0.6,0.6,1,1.5,1.1,2.7l-2.6,0.2
		c-0.1-0.5-0.2-0.9-0.5-1.2c-0.2-0.2-0.5-0.4-0.9-0.4c-0.3,0-0.6,0.1-0.7,0.3c-0.2,0.2-0.2,0.4-0.2,0.7c0,0.2,0.1,0.4,0.2,0.5
		c0.1,0.2,0.4,0.3,0.9,0.4c1.2,0.3,2.1,0.7,2.6,1c0.5,0.3,0.9,0.8,1.2,1.3c0.2,0.5,0.4,1.1,0.4,1.7c0,0.8-0.2,1.5-0.5,2.1
		c-0.3,0.6-0.8,1.1-1.3,1.5c-0.6,0.3-1.3,0.5-2.2,0.5c-1.5,0-2.6-0.4-3.2-1.1C86.6,56.7,86.2,55.8,86.1,54.6"/>
	<path class="st0" d="M107.3,46.4l2.8,0l0.1,7.1c0,0.7-0.1,1.4-0.2,2c-0.2,0.6-0.4,1.2-0.8,1.6c-0.4,0.5-0.7,0.8-1.1,1
		c-0.5,0.3-1.2,0.4-2,0.4c-0.4,0-0.9,0-1.4-0.1c-0.5-0.1-1-0.2-1.3-0.5c-0.4-0.2-0.7-0.6-1-1c-0.3-0.4-0.5-0.9-0.6-1.4
		c-0.2-0.8-0.3-1.4-0.3-2l-0.1-7.1l2.8,0l0.1,7.3c0,0.7,0.2,1.2,0.4,1.5c0.3,0.4,0.7,0.5,1.1,0.5s0.9-0.2,1.1-0.5
		c0.3-0.4,0.4-0.9,0.4-1.5L107.3,46.4z"/>
	<polygon class="st0" points="117.7,46.4 120.5,46.3 120.6,55.3 124.9,55.2 125,58.2 117.8,58.2 	"/>
	<polygon class="st0" points="130.7,46.2 139.1,46.2 139.2,49.1 136.3,49.1 136.4,58.1 133.6,58.1 133.5,49.2 130.7,49.2 	"/>
	<path class="st1" d="M8.7,55.7c1.8-2,16-23.4,18-26.8c2.1-3.4,0.8-5.2-0.5-7.2c-1.3-2-8.2-10.6-9.8-12.3c-1.5-1.6-3.3-2.4-1.5,1.6
		c1.8,4.1,4.5,10,5.1,11.9c0.6,2,0.7,2.7-1.3,7c-2.1,4.3-9.1,19.6-10.5,22.2C7.1,54.1,4.7,60,8.7,55.7"/>
	<path class="st1" d="M25,44.1c-0.8,0.8-8.1,6.7-9.2,7.8c-1.1,1-0.8,2-0.1,2.6c0.7,0.6,4.9,2.9,5.7,3.3c3.7,2.1,5.1,1.6,2.9-0.4
		c-1.1-1-3-3-3.5-3.5c-0.8-0.9-0.9-1,0.5-2.9c1-1.3,3.4-4.4,4-5.3C26.8,43.9,26.8,42.5,25,44.1"/>
	<path class="st1" d="M12.2,23.1c1.2-1.1,2-2.2,3-3.6c0.9-1.2,1.2-1.6,0.4-2.7c-0.5-0.8-3.5-3.8-4.1-4.4c-2.9-2.7-4-2.1-2.3,0.5
		c0.9,1.4,2.4,3.8,2.7,4.5c0.6,1.1,0.7,1.4,0,2.5c-0.5,0.9-0.8,1.4-1.3,2.4C9.6,24.2,10.5,24.8,12.2,23.1"/>
</g>
</svg>
